<svg xmlns="http://www.w3.org/2000/svg" fill="none" viewBox="0 0 14 14"><g id="facebook-1--media-facebook-social"><path id="Subtract" stroke="currentColor" stroke-linecap="round" stroke-linejoin="round" d="M3.844 12.8a3.006 3.006 0 0 1 -2.643 -2.65C1.092 9.129 1 8.08 1 7.012s0.092 -2.117 0.201 -3.138a3.006 3.006 0 0 1 2.643 -2.649C4.871 1.11 5.925 1.012 7 1.012c1.075 0 2.13 0.099 3.156 0.213a3.006 3.006 0 0 1 2.643 2.65c0.109 1.02 0.201 2.069 0.201 3.137 0 1.069 -0.092 2.117 -0.201 3.138a3.006 3.006 0 0 1 -2.643 2.65 42.5 42.5 0 0 1 -1.716 0.16V9.892h1.92v-2.4H8.44v-0.96c0 -0.53 0.43 -0.96 0.96 -0.96h0.96v-1.44a0.96 0.96 0 0 0 -0.96 -0.96h-0.48a2.88 2.88 0 0 0 -2.88 2.88v1.44H4.12v2.4h1.92v3.096a35.248 35.248 0 0 1 -2.196 -0.188Z" stroke-width="1"></path></g></svg>