<svg xmlns="http://www.w3.org/2000/svg" fill="none" viewBox="0 0 14 14"><g id="tiktok"><path id="Vector" stroke="currentColor" stroke-linecap="round" stroke-linejoin="round" d="M5.671 6.655a1.99 1.99 0 1 0 1.99 1.99v-5.28c0.308 1.321 1.195 2.242 2.658 2.242" stroke-width="1"></path><path id="Intersect" stroke="currentColor" stroke-linecap="round" stroke-linejoin="round" d="M0.96 10.268a3.132 3.132 0 0 0 2.753 2.76c1.07 0.12 2.167 0.222 3.287 0.222s2.218 -0.102 3.287 -0.222a3.132 3.132 0 0 0 2.753 -2.76c0.114 -1.063 0.21 -2.155 0.21 -3.268s-0.096 -2.205 -0.21 -3.269a3.132 3.132 0 0 0 -2.753 -2.76C9.217 0.853 8.12 0.75 7 0.75S4.782 0.852 3.713 0.972A3.132 3.132 0 0 0 0.96 3.732C0.846 4.794 0.75 5.886 0.75 7s0.096 2.205 0.21 3.268Z" stroke-width="1"></path></g></svg>