<svg xmlns="http://www.w3.org/2000/svg" fill="none" viewBox="-0.7 -0.7 14 14" style="background-color: currentColor"><g id="button-record-1--button-multimedia-multi-media-controls-record-circle"><path id="Subtract" fill="#000000" fill-rule="evenodd" d="M1.8189 1.8189C2.8827 0.756 4.4172 0.225 6.3 0.225s3.4173 0.531 4.4811000000000005 1.5938999999999999C11.844000000000001 2.8827 12.375 4.4172 12.375 6.3s-0.531 3.4173 -1.5938999999999999 4.4811000000000005C9.717300000000002 11.844000000000001 8.1828 12.375 6.3 12.375s-3.4173 -0.531 -4.4811000000000005 -1.5938999999999999C0.756 9.717300000000002 0.225 8.1828 0.225 6.3s0.531 -3.4173 1.5938999999999999 -4.4811000000000005ZM8.55 6.3c0 1.4400000000000002 -0.81 2.25 -2.25 2.25S4.05 7.74 4.05 6.3 4.86 4.05 6.3 4.05s2.25 0.81 2.25 2.25Z" clip-rule="evenodd" stroke-width="1"></path></g></svg>