<svg xmlns="http://www.w3.org/2000/svg" fill="none" viewBox="-0.7 -0.7 14 14" style="background-color: currentColor"><g id="facebook-1--media-facebook-social"><path id="Subtract" fill="#000000" d="M3.3093 11.7963a2.8494 2.8494 0 0 1 -2.5047 -2.511C0.7020000000000001 8.317800000000002 0.6138 7.3242 0.6138 6.3117s0.0873 -2.007 0.1908 -2.9736A2.8494 2.8494 0 0 1 3.3093 0.8271000000000001C4.2822000000000005 0.7191000000000001 5.2812 0.6255 6.3 0.6255c1.0188 0 2.0178000000000003 0.09269999999999999 2.9907 0.2016a2.8494 2.8494 0 0 1 2.5047 2.511c0.10350000000000001 0.9675 0.1908 1.9610999999999998 0.1908 2.9736s-0.0873 2.0061 -0.1908 2.9736a2.8494 2.8494 0 0 1 -2.5047 2.511c-0.378 0.0414 -0.7605 0.081 -1.1457 0.1143a0.4437 0.4437 0 0 1 -0.4806 -0.4446v-2.4255h1.3698000000000001a0.45 0.45 0 0 0 0.45 -0.45V7.216200000000001a0.45 0.45 0 0 0 -0.45 -0.45H7.6644000000000005v-0.909a0.909 0.909 0 0 1 0.9098999999999999 -0.9098999999999999h0.45990000000000003a0.45 0.45 0 0 0 0.45 -0.45V3.582a0.909 0.909 0 0 0 -0.909 -0.909h-0.4554a2.7297 2.7297 0 0 0 -2.7297 2.7288v1.3644H4.0203a0.45 0.45 0 0 0 -0.45 0.45v1.3742999999999999a0.45 0.45 0 0 0 0.45 0.45H5.391v2.4615a0.4428 0.4428 0 0 1 -0.4716 0.4446 38.115 38.115 0 0 1 -1.6092 -0.15030000000000002Z" stroke-width="1"></path></g></svg>