<svg xmlns="http://www.w3.org/2000/svg" fill="none" viewBox="-0.7 -0.7 14 14" style="background-color: currentColor"><g id="tag--tags-bookmark-favorite"><path id="Subtract" fill="#000000" fill-rule="evenodd" d="M3.1104 0.2655C4.0203 0.3213 4.9752 0.48600000000000004 5.5152 0.5913c0.378 0.0738 0.7200000000000001 0.25020000000000003 1.0017 0.49950000000000006a69.7104 69.7104 0 0 1 5.2515 5.175c0.7308000000000001 0.801 0.774 2.0115 0.1404 2.8746 -0.3717 0.5066999999999999 -0.7767000000000001 1.0313999999999999 -1.2564 1.512 -0.4806 0.4797 -1.0053 0.8847 -1.512 1.2564 -0.864 0.6335999999999999 -2.0745 0.5904 -2.8746 -0.1404a69.7104 69.7104 0 0 1 -5.175 -5.2515 2.1168 2.1168 0 0 1 -0.49950000000000006 -1.0017c-0.1053 -0.54 -0.27 -1.494 -0.3258 -2.4048000000000003a7.029 7.029 0 0 1 0.0252 -1.314c0.0504 -0.378 0.162 -0.7956 0.4356 -1.0701 0.2745 -0.2745 0.6930000000000001 -0.3852 1.071 -0.4356A7.029 7.029 0 0 1 3.1095 0.2655Zm0.1638 4.8654a1.3131000000000002 1.3131000000000002 0 1 1 1.8567000000000002 -1.8567000000000002 1.3131000000000002 1.3131000000000002 0 0 1 -1.8567000000000002 1.8567000000000002Z" clip-rule="evenodd" stroke-width="1"></path></g></svg>