<svg xmlns="http://www.w3.org/2000/svg" fill="none" viewBox="-0.7 -0.7 14 14" style="background-color: currentColor"><g id="home-2--door-entrance-home-house-roof-round-shelter"><path id="Subtract" fill="#000000" fill-rule="evenodd" d="M5.4837 1.1384999999999998a1.35 1.35 0 0 1 1.6326 0l0.5940000000000001 0.4509a18.45 18.45 0 0 1 4.4145 4.8015l0.1908 0.2997a0.9 0.9 0 0 1 -0.7595999999999999 1.3824h-0.6219c0.036000000000000004 0.8280000000000001 -0.009000000000000001 1.6569 -0.135 2.4768a1.6704 1.6704 0 0 1 -1.6524 1.4166H7.425V9a1.125 1.125 0 1 0 -2.25 0v2.9663999999999997H3.4533a1.6713 1.6713 0 0 1 -1.6515 -1.4166c-0.12600000000000003 -0.8199000000000001 -0.171 -1.6497 -0.135 -2.4768H1.044a0.9 0.9 0 0 1 -0.7595999999999999 -1.3824L0.47430000000000005 6.39a18.45 18.45 0 0 1 4.4154 -4.8006l0.5940000000000001 -0.4509Z" clip-rule="evenodd" stroke-width="1"></path></g></svg>