<svg xmlns="http://www.w3.org/2000/svg" fill="none" viewBox="-0.7 -0.7 14 14" style="background-color: currentColor"><g id="news-paper--newspaper-periodical-fold-content-entertainment"><path id="Subtract" fill="#000000" fill-rule="evenodd" d="M2.2284 0.9C3.1221 0.774 4.0842 0.639 5.067 0.639S7.0137 0.774 7.9074 0.9l0.4356 0.061200000000000004a1.3842 1.3842 0 0 1 1.1772 1.1384999999999998c0.027 0.3204 0.0567 0.6408 0.0864 0.9630000000000001 0.1017 1.098 0.2034 2.205 0.2034 3.357 0 1.3968 -0.08910000000000001 2.7477 -0.13319999999999999 3.2409a0.5625 0.5625 0 1 0 1.1205 0.0999c0.0468 -0.5202 0.1377 -1.9044 0.1377 -3.3408a31.418999999999997 31.418999999999997 0 0 0 -0.1404 -2.718 0.12150000000000001 0.12150000000000001 0 0 1 0.12060000000000001 -0.1323c0.7452 0 1.3518000000000001 0.6048 1.3482 1.3527a102.321 102.321 0 0 1 -0.12240000000000001 4.869000000000001 2.0565 2.0565 0 0 1 -1.8792000000000002 1.9377l-0.20070000000000002 0.0171c-0.45990000000000003 0.0387 -0.9297 0.0747 -1.4040000000000001 0.1053a50.1948 50.1948 0 0 1 -3.5892 0.1107c-0.8784 0 -1.7325000000000002 -0.108 -2.5362 -0.2196a2.3373 2.3373 0 0 1 -1.9980000000000002 -2.0916C0.4347 8.583300000000001 0.3357 7.4565 0.3357 6.3c0 -1.2006000000000001 0.108 -2.3742 0.20970000000000003 -3.483l0.0558 -0.6120000000000001a1.3833 1.3833 0 0 1 1.1907 -1.2438L2.2284 0.9Zm0.4158 4.831200000000001a0.468 0.468 0 0 0 0.42569999999999997 0.3897l0.35100000000000003 0.027c0.5436 0.042300000000000004 1.107 0.0855 1.683 0.0855 0.5778 0 1.1402999999999999 -0.0432 1.6848 -0.0855l0.35100000000000003 -0.027a0.468 0.468 0 0 0 0.4248 -0.3897l0.015300000000000001 -0.08910000000000001c0.06210000000000001 -0.369 0.12600000000000003 -0.7524 0.12600000000000003 -1.1448 0 -0.3924 -0.0639 -0.7749 -0.12600000000000003 -1.1439l-0.015300000000000001 -0.09000000000000001a0.468 0.468 0 0 0 -0.4248 -0.3897l-0.35100000000000003 -0.027a21.6864 21.6864 0 0 0 -1.6839 -0.08460000000000001c-0.5769000000000001 0 -1.1402999999999999 0.0432 -1.6839 0.0855l-0.35100000000000003 0.027a0.468 0.468 0 0 0 -0.42569999999999997 0.3897l-0.014400000000000001 0.08910000000000001c-0.06300000000000001 0.369 -0.12600000000000003 0.7515 -0.12600000000000003 1.1439 0 0.3924 0.06300000000000001 0.7758 0.12600000000000003 1.1448l0.014400000000000001 0.08910000000000001Zm4.4307 3.3858a0.5625 0.5625 0 0 0 0 -1.125H3.0897a0.5625 0.5625 0 1 0 0 1.125h3.9852Z" clip-rule="evenodd" stroke-width="1"></path></g></svg>