<svg xmlns="http://www.w3.org/2000/svg" fill="none" viewBox="-0.7 -0.7 14 14" style="background-color: currentColor"><g id="tiktok"><path id="Subtract" fill="#000000" fill-rule="evenodd" d="M3.2913 0.4275C4.2579 0.3195 5.266800000000001 0.225 6.3 0.225c1.0332 0 2.0421 0.0945 3.0087 0.2025a3.2688 3.2688 0 0 1 2.8746 2.8827c0.10350000000000001 0.9621 0.1917 1.9638 0.1917 2.9898000000000002 0 1.026 -0.0882 2.0277000000000003 -0.1917 2.9898000000000002a3.2688 3.2688 0 0 1 -2.8746 2.8827c-0.9666000000000001 0.108 -1.9754999999999998 0.2025 -3.0087 0.2025 -1.0332 0 -2.0421 -0.0945 -3.0087 -0.2025a3.2688 3.2688 0 0 1 -2.8746 -2.8827C0.3132 8.3277 0.225 7.3260000000000005 0.225 6.3c0 -1.026 0.0882 -2.0277000000000003 0.1917 -2.9898000000000002A3.2688 3.2688 0 0 1 3.2913 0.4275Zm4.2075 2.1663a0.5625 0.5625 0 0 0 -1.1106 0.12689999999999999V7.920000000000001a1.3968 1.3968 0 1 1 -1.3968 -1.3968 0.5625 0.5625 0 1 0 0 -1.125A2.5218000000000003 2.5218000000000003 0 1 0 7.513200000000001 7.920000000000001V4.779c0.54 0.459 1.2366000000000001 0.7110000000000001 2.0538000000000003 0.7110000000000001a0.5625 0.5625 0 1 0 0 -1.125c-0.5940000000000001 0 -1.035 -0.18359999999999999 -1.3598999999999999 -0.47250000000000003 -0.3312 -0.2952 -0.5769000000000001 -0.7343999999999999 -0.7083 -1.2987000000000002Z" clip-rule="evenodd" stroke-width="1"></path></g></svg>