<svg xmlns="http://www.w3.org/2000/svg" fill="none" viewBox="-0.7 -0.7 14 14" style="background-color: currentColor"><g id="youtube--youtube-clip-social-video"><path id="Subtract" fill="#000000" fill-rule="evenodd" d="M3.5046000000000004 1.5489000000000002c0.9008999999999999 -0.081 1.8369 -0.1521 2.7954 -0.1521s1.8945 0.0702 2.7945 0.15300000000000002c1.5011999999999999 0.135 2.7504 1.3131000000000002 2.9268 2.8224 0.0738 0.6228 0.12869999999999998 1.2671999999999999 0.12869999999999998 1.9278s-0.0558 1.305 -0.12869999999999998 1.9278c-0.1764 1.5093 -1.4256000000000002 2.6865 -2.9268 2.8233 -0.9 0.081 -1.836 0.1521 -2.7945 0.1521s-1.8945 -0.0702 -2.7954 -0.15300000000000002C2.0042999999999997 10.9161 0.756 9.738000000000001 0.5778 8.228700000000002A16.5618 16.5618 0 0 1 0.45 6.3c0 -0.6606 0.0558 -1.305 0.1278 -1.9278 0.1773 -1.5093 1.4265 -2.6865 2.9268 -2.8233ZM8.6706 6.3c0 0.6696 -1.7541 1.7145000000000001 -3.0132 2.3787 -0.5805 0.30600000000000005 -1.2555 -0.1233 -1.2555 -0.7794V4.7007c0 -0.657 0.675 -1.0854 1.2555 -0.7794 1.2591 0.6642 3.0132 1.71 3.0132 2.3787Z" clip-rule="evenodd" stroke-width="1"></path></g></svg>