<svg xmlns="http://www.w3.org/2000/svg" fill="none" viewBox="0 0 14 14"><g id="news-paper--newspaper-periodical-fold-content-entertainment"><path id="Intersect" stroke="currentColor" stroke-linecap="round" stroke-linejoin="round" d="M10.043 10.438c0.095 -1.136 0.18 -2.324 0.18 -3.438 0 -1.554 -0.166 -3.063 -0.294 -4.505a1.037 1.037 0 0 0 -0.893 -0.932c-1.145 -0.156 -2.341 -0.354 -3.571 -0.354s-2.426 0.198 -3.572 0.354c-0.477 0.066 -0.85 0.452 -0.893 0.932C0.872 3.937 0.706 5.446 0.706 7c0 1.26 0.11 2.489 0.219 3.678a2.096 2.096 0 0 0 1.791 1.874c0.892 0.124 1.81 0.24 2.749 0.24 1.24 0 2.903 -0.048 4.123 -0.123a89.694 89.694 0 0 0 1.853 -0.135 1.864 1.864 0 0 0 1.713 -1.753c0.093 -1.703 0.129 -3.53 0.138 -5.315a0.996 0.996 0 0 0 -0.998 -1h-2.189" stroke-width="1"></path><path id="Intersect_2" stroke="currentColor" stroke-linecap="round" stroke-linejoin="round" d="M3.442 6.46a0.521 0.521 0 0 0 0.469 0.444c0.512 0.046 1.046 0.1 1.595 0.1 0.55 0 1.083 -0.054 1.596 -0.1a0.521 0.521 0 0 0 0.468 -0.444c0.053 -0.369 0.11 -0.752 0.11 -1.145s-0.057 -0.776 -0.11 -1.145a0.521 0.521 0 0 0 -0.468 -0.445c-0.513 -0.045 -1.047 -0.1 -1.596 -0.1 -0.549 0 -1.083 0.055 -1.595 0.1a0.521 0.521 0 0 0 -0.469 0.445c-0.053 0.369 -0.11 0.752 -0.11 1.145s0.057 0.776 0.11 1.145Z" stroke-width="1"></path><path id="Vector" stroke="currentColor" stroke-linecap="round" stroke-linejoin="round" d="M7.313 9.47H3.648" stroke-width="1"></path></g></svg>